<?xml version="1.0" encoding="utf-8"?>
<!-- Generator: Adobe Illustrator 19.0.0, SVG Export Plug-In . SVG Version: 6.00 Build 0)  -->
<svg version="1.1" id="Layer_1" xmlns="http://www.w3.org/2000/svg" xmlns:xlink="http://www.w3.org/1999/xlink" x="0px" y="0px"
	 viewBox="0 0 450 402" style="enable-background:new 0 0 450 402;" xml:space="preserve">
<style type="text/css">
	.st0{fill:#4D4D4D;stroke:#4D4D4D;stroke-width:5;stroke-miterlimit:10;}
</style>
<path id="XMLID_37_" class="st0" d="M278.2,348.5c0,5.6,0,11.3,0,17.2c-24.6,0-48.6,0-73,0c0-15.4,0-30.7,0-46.3c-9.7,0-19.1,0-29,0
	c0,15.3,0,30.7,0,46.4c-3.5,0-6.4,0-10.3,0c0-5.8,0-11.7,0-17.6c0-2.4,0-4.8,0-7.2c0-7.2,0-14.5,0-21.9c-7.4,0-14.2-0.2-21.1,0.1
	c-3.8,0.1-4.9-1.4-4.9-5c0-3.5,0.8-5.3,4.7-5.1c6.9,0.2,13.9,0.1,21.5,0.1c-1.5-33.4-18.8-55.9-46.7-71.5c1-2.2,1.7-4.1,2.7-5.8
	c20.5-37.3,41.2-74.5,61.7-111.8c11.3-20.5,22.5-41.2,33.7-61.7c1.4-2.3,2.9-4.5,4.6-7.2c1.7,2.7,3.1,4.9,4.6,7.2
	c0.3,0.8,0.6,1.6,1,2.3c31.3,56.8,62.6,113.6,93.8,170.5c1.2,2.1,2.1,4.4,3.2,6.7c-28.1,15.8-45.1,38.2-46.7,71.4
	c7.6,0,14.5,0.2,21.5-0.1c3.9-0.1,4.7,1.7,4.7,5.1c0,3.6-1.1,5.1-4.9,5c-6.9-0.2-13.9-0.1-21.1-0.1c0,7.7,0,14.8,0,21.9
	C278.2,343.4,278.2,346,278.2,348.5z M227.2,81.6c-0.1,1-0.2,1.5-0.2,2c0,45.5,0,91-0.1,136.5c0,2.7,0.9,4.1,3.1,5.6
	c7,5,8,14.3,2.5,20.6c-5.6,6.3-15.1,6.4-20.8,0.2c-5.7-6.2-4.9-15.6,2.1-20.6c2.5-1.8,3.3-3.5,3.3-6.5c-0.1-44.5-0.1-89-0.1-133.5
	c0-1.3-0.2-2.6-0.3-5c-28.6,52-56.7,103-84.8,154c26.8,17.7,42.3,41.7,43.4,73.7c31.5,0,62.5,0,93.6,0c0.2-15.5,4.3-29.6,12.2-42.6
	c7.8-12.9,18.6-22.9,31.1-31.1c-28.1-51-56-101.6-83.8-152.2C228.2,82.4,227.9,82.3,227.2,81.6z"/>
<path id="XMLID_36_" class="st0" d="M165.8,340.9c0,2.4,0,4.8,0,7.2c-8.6-4-17.7-7.1-25.6-12c-43.4-27.3-69.4-66.5-74.1-117.7
	c-5.9-65.8,20.4-116.5,76.3-151.8c6.3-4,13.2-7.1,20.1-10c6.7-2.8,13.7-4.8,21.9-7.6c-2.7,0-4,0-5.4,0c-33.3,0-66.7,0-100,0.1
	c-2.1,0-4.2,1.8-6.4,2.2c-2.3,0.4-5.2,0.8-7-0.1c-1-0.5-1.4-5.2-0.5-5.9c1.7-1.3,4.6-1.4,6.9-1.2c2.1,0.1,4.2,1.8,6.3,1.8
	c41.2,0.1,82.3,0.1,123.5,0c3.1,0,6.3-0.5,9.8-0.8c0.2-2.6,0.3-5.1,0.5-7.8c6.8,0,13.5,0,20.6,0c0.2,2.5,0.3,4.9,0.5,7.9
	c3.2,0.3,6.3,0.7,9.4,0.7c41.2,0,82.3,0.1,123.5-0.1c2.3,0,4.5-1.7,6.8-1.8c2.3-0.1,5.2,0,6.9,1.3c0.9,0.7,0.5,5.3-0.6,5.9
	c-1.9,1-4.7,0.5-7,0c-1.6-0.3-3-2.2-4.5-2.2C332.2,49,296.6,49,260,49c8.4,3,16.2,5.2,23.4,8.4c49.8,22.3,81.3,59.9,92.4,113.4
	c14.8,71.3-20.8,141.7-86.5,173.2c-3.6,1.7-7.4,3-11.1,4.5c0-2.5,0-5,0-7.6c71.1-28.2,109.1-105.9,87.8-180.7
	C345.8,89.4,280.2,53.6,233.2,53.4c-0.1,1.4-0.3,2.8-0.5,4.5c-2.3,0.1-4.2,0.2-6.2,0.3c-1.4-2.3-2.9-4.5-4.6-7.2
	c-1.7,2.7-3.1,4.9-4.6,7.2c-1.6-0.1-3.3-0.2-5-0.3c-0.3-1.7-0.6-3.3-0.9-4.8C155.8,54.7,91.4,97,75.3,170.8
	C60,241.2,98.7,314.2,165.8,340.9z"/>
</svg>
