<?xml version="1.0" encoding="utf-8"?>
<!-- Generator: Adobe Illustrator 19.0.0, SVG Export Plug-In . SVG Version: 6.00 Build 0)  -->
<svg version="1.1" id="Layer_1" xmlns="http://www.w3.org/2000/svg" xmlns:xlink="http://www.w3.org/1999/xlink" x="0px" y="0px"
	 viewBox="0 0 100 100" style="enable-background:new 0 0 100 100;" xml:space="preserve">
<style type="text/css">
	.st0{fill:#C8C8C8;}
</style>
<path id="XMLID_1_" class="st0" d="M7.4,24.9c0.2-0.8,0.4-1.6,0.5-2.5c0.8-4.5,2.8-8.4,6.2-11.6c0.7-0.6,1.3-1.3,2-1.9
	c2.4-2,6.2-1.9,8.6,0.6c4.2,4.3,8.5,8.6,12.8,12.8c2.4,2.3,2.5,6.3-0.1,8.9c-2.2,2.2-4.4,4.4-6.6,6.6c-0.2,0.2-0.3,0.4-0.4,0.5
	c6.8,14.2,17.3,24.7,31.5,31.5c2.2-2.3,4.6-4.6,6.9-6.9c1.1-1.1,2.4-1.8,3.9-2c1.9-0.3,3.6,0.2,5,1.6c4.4,4.4,8.7,8.8,13.2,13.2
	c2.5,2.5,2.4,6.4,0.2,8.6c-2.3,2.4-4.6,4.7-7.7,6.1c-3.9,1.8-7.9,2.4-12.2,1.8c-7.4-1-14.1-3.7-20.5-7.3c-4.4-2.5-8.5-5.4-12.4-8.6
	c-4.8-4-9.4-8.4-13.5-13.2C22,60.1,19.4,57,17,53.7c-3.2-4.3-5.8-8.9-7.5-13.9c-0.8-2.3-1.1-4.7-1.7-7.1c-0.1-0.4-0.2-0.8-0.3-1.2
	C7.4,29.3,7.4,27.1,7.4,24.9z"/>
</svg>
