<?xml version="1.0" encoding="utf-8"?>
<!-- Generator: Adobe Illustrator 19.0.0, SVG Export Plug-In . SVG Version: 6.00 Build 0)  -->
<svg version="1.1" id="Layer_1" xmlns="http://www.w3.org/2000/svg" xmlns:xlink="http://www.w3.org/1999/xlink" x="0px" y="0px"
	 viewBox="0 0 100 100" style="enable-background:new 0 0 100 100;" xml:space="preserve">
<style type="text/css">
	.st0{fill:#C8C8C8;}
</style>
<path id="XMLID_3_" class="st0" d="M43,55.9c0.6,3.8,0.6,3.8,4.8,3.8c2.1,0,4.2-0.1,6.3,0c2,0.1,2.8-0.5,2.5-2.5
	c-0.1-0.4,0-0.9,0.1-1.6c11.6-0.5,23.1-1.2,34.5-4.2c0,9.3,0,18.5,0,27.7c0,1.6-1,2.4-2.5,2.7c-0.6,0.1-1.2,0-1.8,0
	c-24.7,0-49.3,0-74,0c-3.6,0-4.4-0.7-4.4-4.4c0-8.6,0-17.2,0-25.8c5.8,1,11.5,2.1,17.3,2.8C31.5,55.2,37.2,55.5,43,55.9z"/>
<path id="XMLID_5_" class="st0" d="M56.8,53.2c0-1.8-1.2-1.8-2.6-1.8c-2.9,0-5.8,0-8.7,0c-1.4,0-2.5,0.1-2.3,2
	c-11.6-0.3-23-1.1-34.1-4.3c-1.2-0.3-1.6-1-1.6-2.2c0.1-4.5,0-9,0-13.5c0-3.8,1.3-5.2,5.3-5.2c6.1,0,12.3,0,18.4,0
	c2.5,0,3.6-1.1,3.6-3.6c0-0.7,0-1.3,0.1-2c0.4-3,2.1-4.6,5.1-4.6c6.5,0,12.9,0,19.4,0c3.6,0,5.4,1.9,5.5,5.4c0,1.4-0.6,3.2,1.3,4
	c0.7,0.3,1.4,0.7,2.1,0.7c6.2,0.1,12.4,0,18.6,0c4.2,0,5.5,1.3,5.5,5.4c0,4.1-0.1,8.2,0.1,12.3c0.1,2.2-0.5,3.2-2.8,3.7
	c-8.9,2.1-18,3.1-27.2,3.6C60.6,53.3,58.8,53.2,56.8,53.2z M60,23c-6.8,0-13.6,0-20.7,0c0.3,1.4,0.2,2.8,0.8,3.7
	c0.9,1.2,2.4,1.7,4.2,1.6c3.8-0.2,7.5-0.1,11.3-0.1C59.6,28.3,60.6,27.1,60,23z"/>
</svg>
