<?xml version="1.0" encoding="utf-8"?>
<!-- Generator: Adobe Illustrator 19.0.0, SVG Export Plug-In . SVG Version: 6.00 Build 0)  -->
<svg version="1.1" id="Layer_1" xmlns="http://www.w3.org/2000/svg" xmlns:xlink="http://www.w3.org/1999/xlink" x="0px" y="0px"
	 viewBox="0 0 256 256" style="enable-background:new 0 0 256 256;" xml:space="preserve">
<style type="text/css">
	.st0{fill:#344092;}
</style>
<path class="st0" d="M128.5,48c31.5,0,62.9,0,94.4,0c12.4,0,20.5,11.2,15.8,22.1c-2.9,6.8-8.4,10-15.9,9.9c-21.1,0-42.3,0-63.4,0
	c-42.1,0-84.3,0-126.4,0c-12.4,0-20.5-11.2-15.8-22.1c2.9-6.8,8.4-9.9,15.9-9.9C64.9,48,96.7,48,128.5,48z"/>
<path class="st0" d="M128.3,112c31.6,0,63.3-0.1,94.9,0c12.6,0,20.5,11.9,15.2,22.7c-3.3,6.7-9,9.3-16.3,9.3
	c-42.1-0.1-84.3,0-126.4,0c-20.6,0-41.3,0-61.9,0c-10.6,0-17.8-6.6-17.8-16c0-9.4,7.3-15.9,17.9-15.9C65.3,112,96.8,112,128.3,112z"
	/>
<path class="st0" d="M128.5,176c31.5,0,62.9,0,94.4,0c12.4,0,20.5,11.2,15.8,22c-2.9,6.8-8.4,10-15.9,9.9c-20.8,0-41.6,0-62.4,0
	c-42.5,0-84.9,0-127.4,0c-12.4,0-20.5-11.2-15.8-22.1c2.9-6.8,8.4-9.9,15.9-9.9C64.9,176,96.7,176,128.5,176z"/>
</svg>
