<?xml version="1.0" encoding="utf-8"?>
<!-- Generator: Adobe Illustrator 19.0.0, SVG Export Plug-In . SVG Version: 6.00 Build 0)  -->
<svg version="1.1" id="Layer_1" xmlns="http://www.w3.org/2000/svg" xmlns:xlink="http://www.w3.org/1999/xlink" x="0px" y="0px"
	 viewBox="0 0 450 402" style="enable-background:new 0 0 450 402;" xml:space="preserve">
<style type="text/css">
	.st0{display:none;fill:#4D4D4D;stroke:#4D4D4D;stroke-width:5;stroke-miterlimit:10;}
	.st1{fill:#4D4D4D;}
</style>
<path id="XMLID_37_" class="st0" d="M278.2,348.5c0,5.6,0,11.3,0,17.2c-24.6,0-48.6,0-73,0c0-15.4,0-30.7,0-46.3c-9.7,0-19.1,0-29,0
	c0,15.3,0,30.7,0,46.4c-3.5,0-6.4,0-10.3,0c0-5.8,0-11.7,0-17.6c0-2.4,0-4.8,0-7.2c0-7.2,0-14.5,0-21.9c-7.4,0-14.2-0.2-21.1,0.1
	c-3.8,0.1-4.9-1.4-4.9-5c0-3.5,0.8-5.3,4.7-5.1c6.9,0.2,13.9,0.1,21.5,0.1c-1.5-33.4-18.8-55.9-46.7-71.5c1-2.2,1.7-4.1,2.7-5.8
	c20.5-37.3,41.2-74.5,61.7-111.8c11.3-20.5,22.5-41.2,33.7-61.7c1.4-2.3,2.9-4.5,4.6-7.2c1.7,2.7,3.1,4.9,4.6,7.2
	c0.3,0.8,0.6,1.6,1,2.3c31.3,56.8,62.6,113.6,93.8,170.5c1.2,2.1,2.1,4.4,3.2,6.7c-28.1,15.8-45.1,38.2-46.7,71.4
	c7.6,0,14.5,0.2,21.5-0.1c3.9-0.1,4.7,1.7,4.7,5.1c0,3.6-1.1,5.1-4.9,5c-6.9-0.2-13.9-0.1-21.1-0.1c0,7.7,0,14.8,0,21.9
	C278.2,343.4,278.2,346,278.2,348.5z M227.2,81.6c-0.1,1-0.2,1.5-0.2,2c0,45.5,0,91-0.1,136.5c0,2.7,0.9,4.1,3.1,5.6
	c7,5,8,14.3,2.5,20.6c-5.6,6.3-15.1,6.4-20.8,0.2c-5.7-6.2-4.9-15.6,2.1-20.6c2.5-1.8,3.3-3.5,3.3-6.5c-0.1-44.5-0.1-89-0.1-133.5
	c0-1.3-0.2-2.6-0.3-5c-28.6,52-56.7,103-84.8,154c26.8,17.7,42.3,41.7,43.4,73.7c31.5,0,62.5,0,93.6,0c0.2-15.5,4.3-29.6,12.2-42.6
	c7.8-12.9,18.6-22.9,31.1-31.1c-28.1-51-56-101.6-83.8-152.2C228.2,82.4,227.9,82.3,227.2,81.6z"/>
<path id="XMLID_36_" class="st0" d="M165.8,340.9c0,2.4,0,4.8,0,7.2c-8.6-4-17.7-7.1-25.6-12c-43.4-27.3-69.4-66.5-74.1-117.7
	c-5.9-65.8,20.4-116.5,76.3-151.8c6.3-4,13.2-7.1,20.1-10c6.7-2.8,13.7-4.8,21.9-7.6c-2.7,0-4,0-5.4,0c-33.3,0-66.7,0-100,0.1
	c-2.1,0-4.2,1.8-6.4,2.2c-2.3,0.4-5.2,0.8-7-0.1c-1-0.5-1.4-5.2-0.5-5.9c1.7-1.3,4.6-1.4,6.9-1.2c2.1,0.1,4.2,1.8,6.3,1.8
	c41.2,0.1,82.3,0.1,123.5,0c3.1,0,6.3-0.5,9.8-0.8c0.2-2.6,0.3-5.1,0.5-7.8c6.8,0,13.5,0,20.6,0c0.2,2.5,0.3,4.9,0.5,7.9
	c3.2,0.3,6.3,0.7,9.4,0.7c41.2,0,82.3,0.1,123.5-0.1c2.3,0,4.5-1.7,6.8-1.8c2.3-0.1,5.2,0,6.9,1.3c0.9,0.7,0.5,5.3-0.6,5.9
	c-1.9,1-4.7,0.5-7,0c-1.6-0.3-3-2.2-4.5-2.2C332.2,49,296.6,49,260,49c8.4,3,16.2,5.2,23.4,8.4c49.8,22.3,81.3,59.9,92.4,113.4
	c14.8,71.3-20.8,141.7-86.5,173.2c-3.6,1.7-7.4,3-11.1,4.5c0-2.5,0-5,0-7.6c71.1-28.2,109.1-105.9,87.8-180.7
	C345.8,89.4,280.2,53.6,233.2,53.4c-0.1,1.4-0.3,2.8-0.5,4.5c-2.3,0.1-4.2,0.2-6.2,0.3c-1.4-2.3-2.9-4.5-4.6-7.2
	c-1.7,2.7-3.1,4.9-4.6,7.2c-1.6-0.1-3.3-0.2-5-0.3c-0.3-1.7-0.6-3.3-0.9-4.8C155.8,54.7,91.4,97,75.3,170.8
	C60,241.2,98.7,314.2,165.8,340.9z"/>
<path class="st1" d="M365.6,165.5c12.8,0,23.3-0.5,33.8,0.1c17.7,1.1,27.2,10.7,27.4,28.3c0.4,34.8,0.4,69.7,0,104.5
	c-0.2,16.9-9.2,26.9-26.1,27.2c-41.3,0.7-82.6,0.7-123.9,0c-17.4-0.3-26.1-10.6-26.7-28.8c-0.5-15.2-0.1-30.4-0.1-45.2
	c-22.5-4.4-23.4-3.9-23.5,16.2c-0.1,26,0.3,52-0.2,77.9c-0.4,25.3-10.8,35.3-35.8,35.5c-19.5,0.2-39,0.4-58.4-0.1
	c-20.7-0.5-31.5-11.1-31.9-31.9c-0.7-31.9-0.6-63.7-0.9-95.6c0-0.5-0.6-1-3-4.9c-6.9,0-16.1,0.3-25.2-0.1c-27.9-1-41-14.3-41.1-42
	c-0.1-46-0.1-92.1,0-138.1C30,40,43.4,26.8,72.6,26.8c83.2-0.1,166.5-0.1,249.7,0c29.8,0,43,13.2,43.3,43.3
	C365.8,100.8,365.6,131.5,365.6,165.5z M59,84.1c0,45.1,0,88.5,0,132.7c13.7,0,26.3,0,39.7,0c0.5-4.4,1.1-7.8,1.3-11.2
	c1.5-27.3,10.9-36.2,38.7-36.4c13-0.1,26,0,38.9,0c40.4,0,44.9,4,49.8,44.1c0.1,1,1.2,2,1.9,3.1c6.5,0,13.1,0,19.9,0
	c0.3-5,0.7-8.5,0.7-12.1c0.6-31.8,7.9-38.8,40.4-38.9c15.1,0,30.3,0,45.9,0c0-28.5,0-54.6,0-81.3C243.4,84.1,152.1,84.1,59,84.1z
	 M405.5,209.2c-45.9,0-89.7,0-133.8,0c0,31.7,0,62.1,0,93.2c45,0,88.8,0,133.8,0C405.5,271,405.5,240.7,405.5,209.2z M123.6,216.4
	c0,47.3,0,92.5,0,138.7c26.7,0,52.3,0,78.5,0c0-46.7,0-92.3,0-138.7C175.5,216.4,150.4,216.4,123.6,216.4z M320.1,69.6
	c5-6.4,10.4-10.3,10.1-13.8c-0.3-3.7-5.8-9.7-9.2-9.8c-3.4-0.1-9.4,5.4-9.9,9.1C310.5,58.6,315.6,62.9,320.1,69.6z M304,55.5
	c-6.4-4.7-10.4-9.8-13.7-9.4c-3.6,0.4-9.1,5.9-9.2,9.3c0,3.3,5.5,8.9,9.1,9.4C293.5,65.1,297.5,60.1,304,55.5z"/>
</svg>
