<?xml version="1.0" encoding="utf-8"?>
<!-- Generator: Adobe Illustrator 19.0.0, SVG Export Plug-In . SVG Version: 6.00 Build 0)  -->
<svg version="1.1" id="Layer_1" xmlns="http://www.w3.org/2000/svg" xmlns:xlink="http://www.w3.org/1999/xlink" x="0px" y="0px"
	 viewBox="0 0 100 100" style="enable-background:new 0 0 100 100;" xml:space="preserve">
<style type="text/css">
	.st0{fill:#C8C8C8;}
</style>
<path id="XMLID_2_" class="st0" d="M62.6,99.9c0-0.4,0-0.8,0-1.2c0-8.5,0-17,0-25.5c0-3.1-1.3-4.4-4.4-4.4c-5.5,0-11,0-16.5,0
	c-3.1,0-4.4,1.3-4.4,4.4c0,8.5,0,16.9,0,25.4c0,0.4,0,0.7,0,1.3c-0.4,0-0.7,0-1,0c-6,0-12,0-18,0c-3.6,0-5.6-1.9-5.6-5.6
	c0-15.2,0-30.5,0-45.7c0-2,0.7-3.6,2.3-4.9c10.4-8.5,20.8-17,31.2-25.5c2.7-2.2,4.8-2.2,7.4,0c10.4,8.5,20.8,17,31.2,25.5
	c1.6,1.3,2.3,2.8,2.3,4.8c0,15.3,0,30.6,0,45.8c0,3.4-1.9,5.5-5.2,5.5c-6.3,0-12.5,0-18.8,0C63,100,62.9,100,62.6,99.9z"/>
<path id="XMLID_1_" class="st0" d="M100,42.8c-0.1,1,0,2-0.2,3c-0.6,2.6-2.8,4.1-5.5,3.8c-2.4-0.2-4.4-2.3-4.4-5
	c0-1.1-0.4-1.7-1.2-2.3C77,33.1,65.3,23.8,53.6,14.6c-2.5-2-4.8-2-7.3,0c-11.7,9.3-23.4,18.6-35.1,27.9c-0.7,0.6-1.1,1.1-1.1,2.1
	c0,2.7-1.9,4.8-4.3,5C3,50,0.6,48.4,0.2,45.8c-0.3-2-0.1-4.1,0-6.1c0.1-1.2,1-2.2,2-3C15.7,26,29.2,15.2,42.8,4.5
	c4.6-3.6,9.8-3.6,14.4,0C70.8,15.2,84.3,26,97.8,36.7c1.5,1.2,2.2,2.7,2.2,4.6C100,41.8,100,42.3,100,42.8
	C100,42.8,100,42.8,100,42.8z"/>
</svg>
