<?xml version="1.0" encoding="utf-8"?>
<!-- Generator: Adobe Illustrator 19.0.0, SVG Export Plug-In . SVG Version: 6.00 Build 0)  -->
<svg version="1.1" id="Layer_1" xmlns="http://www.w3.org/2000/svg" xmlns:xlink="http://www.w3.org/1999/xlink" x="0px" y="0px"
	 viewBox="0 0 450 402" style="enable-background:new 0 0 450 402;" xml:space="preserve">
<style type="text/css">
	.st0{fill:#4D4D4D;}
</style>
<path class="st0" d="M264,11.7c2.6,1,5.2,1.7,7.7,2.9c11.3,5.6,15.9,15.2,15.9,27.4c0,56.4,0,112.8,0,169.2c0,18.1,0,36.1,0,54.2
	c0,1.3,0,2.7,0,3.8c-3.7,1.3-7.1,2.5-10.9,3.8c-3.1-6.2-6.3-12.5-9.4-19c-0.5-1.1-0.4-2.6-0.4-4c0-62.3,0-124.7,0-187
	c0-1.4,0-2.7,0-4.3c-57.9,0-115.6,0-173.6,0c0,86.8,0,173.7,0,260.9c41,0,82,0,123.1,0c-2.3,9.9,0.1,18,6.9,25.3
	c4,4.3,7.4,9.2,10.4,14.3c3.2,5.3,7.7,8.8,12.9,11.8c9.4,5.3,18.8,10.7,28.1,16c-4.7,3.4-10.3,4.6-16.1,4.6
	c-52.3,0.1-104.6,0.1-156.9,0c-17.4,0-29.3-12-29.3-29.3c0-107.1,0-214.2,0-321.3c0-14.1,7.3-24,20.9-28.3c0.7-0.2,1.4-0.7,2.1-1
	C151.7,11.7,207.8,11.7,264,11.7z M213.7,341.6c-22.7,0-45.1,0-67.5,0c0,7,0,13.8,0,20.6c22.6,0,45.1,0,67.5,0
	C213.7,355.1,213.7,348.4,213.7,341.6z M217.2,32c-25,0-49.5,0-74,0c0,2.7,0,5.3,0,7.7c24.8,0,49.3,0,74,0c0-0.9,0-1.7,0-2.4
	C217.2,35.6,217.2,33.9,217.2,32z M241.4,43.3c3.8,0.2,7.4-3.2,7.5-7c0.1-3.6-3.3-7.1-7-7.3c-3.6-0.2-7.4,3.4-7.5,7.1
	C234.4,39.7,237.7,43.1,241.4,43.3z"/>
<path class="st0" d="M372.2,362.1c-18.7,9.4-37.3,18.6-56.2,28c-1.5-7.1-6.9-8.3-12.8-8.7c-11-0.8-21.5-3.8-31.5-8.4
	c-6.6-3.1-13.1-6.1-19.6-9.4c-1.9-1-3.6-2.5-5.1-4.1c-5.5-5.9-10.9-11.9-16.4-17.9c-3.2-3.4-4.9-7.4-4.7-12c0.1-3.7,2.3-6.1,5.9-5.4
	c3.5,0.6,7.2,1.9,10.2,3.8c7.5,4.9,14.6,10.5,22.1,15.5c1.9,1.3,4.7,1.4,7.1,2c0.1-2.6,0.8-5.4,0.1-7.7c-1.6-4.9-3.8-9.6-6.1-14.1
	c-12.9-25-26.1-49.9-39-74.9c-1.9-3.8-3.3-8-4.1-12.2c-0.4-2.2,0.2-5.7,1.7-7c1.5-1.2,5.4-1.2,7.1,0c3.8,2.6,7.6,5.7,10.1,9.4
	c9.7,14.5,18.9,29.4,28.3,44.2c0.9,1.4,2.1,2.7,2.6,3.4c4-3.1,7.4-6.9,11.6-8.8c4.7-2.1,9.4,0.3,13.7,3.8c1-1.1,1.8-2.3,2.8-3.3
	c5.8-5.6,12.6-6.1,18.9-1.1c1.8,1.4,3.2,1.6,5.3,1.1c11.8-2.8,19.7,0.8,25,10.7c6.4,11.9,13.2,23.6,16.8,36.7
	c2.1,7.7,2.8,15.7,4.1,23.5C370.8,353.3,371.4,357.5,372.2,362.1z"/>
<path class="st0" d="M181.1,166.8c21,0,42,0,63,0c6.3,0,9.8,4,8.8,9.9c-0.6,3.8-4,6.4-8.7,6.5c-4.3,0.1-8.7,0-13,0
	c-37.6,0-75.2,0-112.7,0c-6.5,0-10.2-3.3-9.9-8.8c0.2-4.6,3.5-7.6,8.7-7.6c12.2-0.1,24.5,0,36.7,0C163,166.8,172,166.8,181.1,166.8z
	"/>
<path class="st0" d="M179.9,201.8c20.3,0,40.5,0,60.8,0c1.9,0,3.9,0.3,5.8,0.7c3.9,0.9,6,4.2,5.6,8.7c-0.3,3.6-3.3,6.7-6.9,6.8
	c-2,0.1-4.1-0.7-6.2-0.6c-3.9,0.1-7.8,0.7-11.7,0.7c-36.8,0.1-73.6-0.1-110.5,0.1c-5.3,0-10.4-3.8-8.8-10.4c0.9-3.7,4.8-6,10.2-6
	C138.8,201.8,159.4,201.8,179.9,201.8z"/>
<path class="st0" d="M204.8,238c1.8,5.5,3.4,10.7,5.2,16.3c-0.8,0.1-1.5,0.1-2.1,0.1c-30,0-60,0-90.1,0c-7.2,0-11.3-4.4-9.8-10.4
	c0.9-3.6,3.5-5.9,7.4-6c4.9-0.2,9.9-0.1,14.8-0.1C155.1,238,179.9,238,204.8,238z"/>
<path class="st0" d="M173.3,115.3c0,8.9,0,17.8,0,26.7c0,4.4-0.8,5.2-5.2,5.2c-16.7,0-33.4,0.1-50,0.1c-4.6,0-5.4-0.8-5.4-5.4
	c0-17.9,0-35.8,0-53.7c0-4.7,0.6-5.3,5.4-5.3c16.6,0,33.1,0,49.7,0c5,0,5.6,0.6,5.6,5.5C173.3,97.3,173.3,106.3,173.3,115.3z
	 M170.3,85.6c-18.4,0-36.4,0-54.4,0c0,19.8,0,39.2,0,58.7c18.3,0,36.3,0,54.4,0C170.3,124.7,170.3,105.3,170.3,85.6z"/>
<path class="st0" d="M213.7,341.6c0,6.8,0,13.5,0,20.6c-22.4,0-44.9,0-67.5,0c0-6.8,0-13.6,0-20.6
	C168.7,341.6,191.1,341.6,213.7,341.6z"/>
<path class="st0" d="M217.2,32c0,1.9,0,3.7,0,5.4c0,0.7,0,1.4,0,2.4c-24.7,0-49.3,0-74,0c0-2.5,0-5,0-7.7
	C167.7,32,192.2,32,217.2,32z"/>
<path class="st0" d="M241.4,43.3c-3.7-0.2-7-3.6-7-7.2c0.1-3.7,3.9-7.4,7.5-7.1c3.7,0.2,7,3.8,7,7.3
	C248.9,40.1,245.3,43.4,241.4,43.3z"/>
<path class="st0" d="M170.3,85.6c0,19.7,0,39.1,0,58.7c-18.1,0-36.1,0-54.4,0c0-19.4,0-38.9,0-58.7
	C133.8,85.6,151.9,85.6,170.3,85.6z M119.3,140.7c16,0,31.6,0,47.3,0c0-17.3,0-34.4,0-51.5c-15.9,0-31.6,0-47.3,0
	C119.3,106.5,119.3,123.5,119.3,140.7z"/>
<path class="st0" d="M119.3,140.7c0-17.2,0-34.3,0-51.5c15.7,0,31.4,0,47.3,0c0,17.1,0,34.2,0,51.5
	C150.9,140.7,135.3,140.7,119.3,140.7z"/>
</svg>
