<?xml version="1.0" encoding="utf-8"?>
<!-- Generator: Adobe Illustrator 19.0.0, SVG Export Plug-In . SVG Version: 6.00 Build 0)  -->
<svg version="1.1" id="Layer_1" xmlns="http://www.w3.org/2000/svg" xmlns:xlink="http://www.w3.org/1999/xlink" x="0px" y="0px"
	 viewBox="0 0 450 402" style="enable-background:new 0 0 450 402;" xml:space="preserve">
<style type="text/css">
	.st0{fill:#4D4D4D;}
</style>
<path class="st0" d="M449,97c-12.9,0-25.1,0-37.2,0c-7.1,0-10.8,3.7-10.8,10.7c0,62.2,0,124.3,0,186.5c0,7,3.7,10.8,10.7,10.8
	c12.2,0,24.3,0,36.4,0c0.3,0.4,0.7,0.6,0.7,0.8c-0.1,17.6,1.1,35.4-0.8,52.9c-2.8,25.9-22.9,42.2-49,42.2c-56.3,0.1-112.7,0-169,0
	c-59.7,0-119.3,0-179,0c-17,0-31-6.5-41.1-20.5c-5.3-7.3-8.4-15.7-8.6-24.6c-0.4-16.8-0.1-33.6-0.1-50.9c12.2,0,24.1,0,36.1,0
	c8.3,0,11.8-3.4,11.8-11.8c0-61.5,0-123,0-184.5c0-8.4-3.4-11.7-11.8-11.7c-11.8,0-23.7,0-35.9,0C1.2,95.5,1,94,1,92.6
	C1,78.8,1,64.9,1,51.1C1.1,22,21.9,1,51,1c116.2,0,232.3,0,348.5,0c28.4,0,49.4,21.2,49.5,49.6C449,65.9,449,81.2,449,97z M225,97
	c-38.8,0-77.7,0-116.5,0c-8.1,0-11.5,3.4-11.5,11.5c0,61.7,0,123.3,0,185c0,8.1,3.4,11.5,11.5,11.5c77.7,0,155.3,0,233,0
	c8,0,11.5-3.5,11.5-11.5c0-61.7,0-123.3,0-185c0-8-3.5-11.5-11.5-11.5C302.7,97,263.8,97,225,97z M80.8,33.4c-10.9,0-21.3,0-31.5,0
	c0,10.7,0,21.1,0,31.3c10.7,0,21.1,0,31.5,0C80.8,54,80.8,43.8,80.8,33.4z M160.7,64.9c0-10.9,0-21.2,0-31.6c-10.7,0-21.1,0-31.4,0
	c0,10.7,0,21.1,0,31.6C139.9,64.9,150.1,64.9,160.7,64.9z M209.1,64.7c10.9,0,21.2,0,31.5,0c0-10.7,0-21.1,0-31.4
	c-10.7,0-21.1,0-31.5,0C209.1,43.9,209.1,54.1,209.1,64.7z M320.8,33.2c-10.6,0-20.9,0-31.5,0c0,10.6,0,20.9,0,31.5
	c10.6,0,20.9,0,31.5,0C320.8,54.2,320.8,43.8,320.8,33.2z M369.1,64.7c10.9,0,21.2,0,31.6,0c0-10.7,0-21.1,0-31.4
	c-10.7,0-21.1,0-31.6,0C369.1,43.9,369.1,54.1,369.1,64.7z M80.9,337.3c-10.9,0-21.2,0-31.6,0c0,10.7,0,21.1,0,31.4
	c10.7,0,21.1,0,31.6,0C80.9,358.1,80.9,347.9,80.9,337.3z M160.7,368.9c0-10.9,0-21.2,0-31.6c-10.7,0-21.1,0-31.4,0
	c0,10.7,0,21.1,0,31.6C139.9,368.9,150.1,368.9,160.7,368.9z M209.3,337.1c0,10.9,0,21.2,0,31.6c10.7,0,21.1,0,31.4,0
	c0-10.7,0-21.1,0-31.6C230.1,337.1,219.9,337.1,209.3,337.1z M320.8,337.3c-10.8,0-21.1,0-31.6,0c0,10.7,0,21,0,31.4
	c10.7,0,21,0,31.6,0C320.8,358.2,320.8,347.9,320.8,337.3z M369.3,337.2c0,10.9,0,21.3,0,31.5c10.7,0,21.1,0,31.3,0
	c0-10.7,0-21.1,0-31.5C390.1,337.2,379.8,337.2,369.3,337.2z"/>
<path class="st0" d="M161,200.7c0-20,0-40,0-60c0-10.3,6.2-14.3,15.4-9.7c40.7,20.5,81.4,41.1,122.1,61.6c3.7,1.9,6.5,4.4,6.4,8.6
	c-0.1,4-2.9,6.3-6.4,8.1c-40.6,20.4-81.1,40.9-121.7,61.3c-9.7,4.9-15.7,0.9-15.7-10.1C161,240.7,161,220.7,161,200.7z"/>
</svg>
