<?xml version="1.0" encoding="utf-8"?>
<!-- Generator: Adobe Illustrator 19.0.0, SVG Export Plug-In . SVG Version: 6.00 Build 0)  -->
<svg version="1.1" id="Layer_1" xmlns="http://www.w3.org/2000/svg" xmlns:xlink="http://www.w3.org/1999/xlink" x="0px" y="0px"
	 viewBox="0 0 100 100" style="enable-background:new 0 0 100 100;" xml:space="preserve">
<style type="text/css">
	.st0{fill:#C8C8C8;}
</style>
<path id="XMLID_2_" class="st0" d="M0,90.5c0.3-0.9,0.7-1.7,1-2.6C3.2,81,7.8,75.9,13.8,72.3c4.4-2.7,9.3-4.6,14-6.9
	c1.1-0.5,1.8-0.3,2.7,0.6c6,5.9,13.2,9,21.8,8.4c6.9-0.5,12.8-3.4,17.7-8.3c1-1,1.7-1.2,3-0.7c6.7,2.3,12.9,5.4,18.2,10.1
	c5.1,4.6,8.7,10,9.4,17.3c-0.9,0-1.6,0-2.4,0c-32,0-64,0-95.9,0c-0.7,0-1.4,0-2.2,0.1C0,92.1,0,91.3,0,90.5z"/>
<path id="XMLID_1_" class="st0" d="M77.6,38.7c-0.2,9.1-2.9,17.4-9.2,24.1c-10.8,11.4-26.9,10.9-37.1-1c-11.3-13.1-11-34.9,0.7-47.5
	C42.9,2.4,60,3.1,70,15.9C75,22.2,77.8,30.7,77.6,38.7z"/>
</svg>
