<?xml version="1.0" encoding="utf-8"?>
<!-- Generator: Adobe Illustrator 19.0.0, SVG Export Plug-In . SVG Version: 6.00 Build 0)  -->
<svg version="1.1" id="Layer_1" xmlns="http://www.w3.org/2000/svg" xmlns:xlink="http://www.w3.org/1999/xlink" x="0px" y="0px"
	 viewBox="0 0 100 100" style="enable-background:new 0 0 100 100;" xml:space="preserve">
<style type="text/css">
	.st0{fill:#C8C8C8;}
</style>
<path id="XMLID_2_" class="st0" d="M41.1,24.6c0.1,0,0.2,0,0.3-0.1c1-0.4,2-0.8,3-1.2c0.3-0.1,0.6-0.2,0.9-0.4
	c0.9-0.3,1.8-0.6,2.7-1c1.6-0.7,3.1-1.3,4.7-0.2c0.1,0.1,0.3,0.1,0.4,0.1c0.2,0.1,0.4,0.2,0.7,0.3c1.8,0.7,3.7,1.4,5.5,2.2
	c0.2,0.1,0.3,0.1,0.5,0.2c1.1,0.4,2.1,0.8,3.2,1.2c0.1,0,0.2,0.1,0.3,0.1c0.1,0.1,0.3,0.2,0.4,0.2c2.1,0.8,4.3,1.7,6.4,2.5
	c1.9,0.7,3.8,1.4,5.7,2.1c0.3,0.1,0.5,0.2,0.8,0.3c3.1,1.2,6.3,2.4,9.4,3.6c0.2,0.1,0.3,0.1,0.5,0.2c2,0.7,3.9,1.5,5.9,2.2
	c0.2,0.1,0.4,0.2,0.7,0.3c1.9,0.7,3.8,1.5,5.7,2.2c0.4,0.2,0.8,0.3,1.2,0.5c-0.1,0.1-0.2,0.4-0.4,0.4c-4.2,1.5-8.4,3.1-12.7,4.5
	c-6.2,2.1-12.4,4.1-18.6,6c-5.6,1.8-11.3,3.5-16.9,5.2c-0.5,0.1-1.1,0.1-1.6,0c-6.7-2-13.5-4.1-20.2-6.2c-3.4-1.1-6.8-2.1-10.2-3.2
	c-0.2-0.1-0.5-0.2-0.8-0.3c1.5-0.5,2.9-0.9,4.3-1.4c0.9-0.3,0.9-0.3,1.2-1.5c-0.6,0.1-1.2,0.2-1.8,0.4c-1.5,0.3-3,0.7-4.5,1
	c-0.5,0.1-0.6,0.3-0.6,0.8c-0.3,6.1-0.7,12.2-1,18.3c-0.1,1.1-0.1,2.3-0.2,3.4c0,0.3-0.3,0.6-0.5,0.8c-2.8,1.4-5.7,1.3-8.5-0.1
	c-0.2-0.1-0.4-0.4-0.4-0.7c-0.3-2.3,0.1-4.6,0.6-6.8c1.2-5.1,3-10,5.1-14.7c0.3-0.8,0.7-1.6,0.9-2.4c0.2-0.5,0.5-0.7,0.9-0.7
	c0.8-0.2,1.7-0.4,2.5-0.6c0-0.1,0-0.2,0-0.3c-0.3-0.1-0.6-0.3-0.9-0.3c-0.4,0-0.8,0.1-1.3,0.1c-1.5,0-2.8,0.1-3,2.2
	C8,42.7,4.5,41.5,1,40.2c0.3-0.2,0.5-0.3,0.7-0.4c0.2-0.1,0.4-0.2,0.6-0.3c2-0.8,3.9-1.5,5.9-2.3c0.1,0,0.2-0.1,0.3-0.1
	c3.1-1.2,6.2-2.3,9.3-3.5c2.2-0.8,4.4-1.7,6.6-2.6c0.3-0.1,0.5-0.2,0.8-0.3c3.2-1.2,6.4-2.4,9.6-3.7c0.1,0,0.1,0,0.1,0
	C37,26.3,39,25.5,41.1,24.6z"/>
<path id="XMLID_1_" class="st0" d="M20.9,50.7c2.4,0.7,4.7,1.4,6.9,2.1c6.3,1.9,12.7,3.8,18.9,5.9c2.6,0.9,5,1,7.6,0
	c3.4-1.3,6.9-2.1,10.3-3.2c5-1.5,10-3.1,15-4.6c0.2-0.1,0.4-0.1,0.6-0.1c0,0.8,0,1.6,0,2.3c0,3.9-0.1,7.8,0,11.7
	c0.1,2.8-1,5-3.1,6.8c-1.8,1.6-3.9,2.7-6.1,3.6c-8.6,3.4-17.5,4-26.6,3.3c-4.1-0.3-8.2-1.1-12.2-2.4c-3.4-1.2-6.6-2.6-9.2-5.2
	c-1.6-1.6-2.4-3.4-2.4-5.6c0-4.6,0-9.1,0-13.7C20.9,51.4,20.9,51.1,20.9,50.7z"/>
</svg>
