<?xml version="1.0" encoding="utf-8"?>
<!-- Generator: Adobe Illustrator 19.0.0, SVG Export Plug-In . SVG Version: 6.00 Build 0)  -->
<svg version="1.1" id="Layer_1" xmlns="http://www.w3.org/2000/svg" xmlns:xlink="http://www.w3.org/1999/xlink" x="0px" y="0px"
	 viewBox="0 0 36 36" style="enable-background:new 0 0 36 36;" xml:space="preserve">
<style type="text/css">
	.st0{fill:#2E2E2E;}
	.st1{fill:#7D7D7D;}
</style>
<rect id="XMLID_1_" class="st0" width="36" height="36"/>
<g id="XMLID_3_">
	<polygon id="XMLID_106_" class="st1" points="5.8,18.2 5.8,29.9 11.4,29.9 11.4,17.3 11.4,14 5.8,14 	"/>
	<circle id="XMLID_105_" class="st1" cx="8.6" cy="8.9" r="2.8"/>
	<path id="XMLID_104_" class="st1" d="M29.4,18.9c-0.4-3-1.7-4.9-5.8-4.9c-2.4,0-4,0.9-4.7,2.1h-0.1V14h-4.4v3v12.8h4.6V22
		c0-2.1,0.4-4.1,2.9-4.1c2.5,0,2.7,2.4,2.7,4.2v7.7h4.7v-8.7h0C29.5,20.4,29.5,19.6,29.4,18.9z"/>
</g>
</svg>
