<?xml version="1.0" encoding="utf-8"?>
<!-- Generator: Adobe Illustrator 19.0.0, SVG Export Plug-In . SVG Version: 6.00 Build 0)  -->
<svg version="1.1" id="Layer_1" xmlns="http://www.w3.org/2000/svg" xmlns:xlink="http://www.w3.org/1999/xlink" x="0px" y="0px"
	 viewBox="-31 33 36 36" style="enable-background:new -31 33 36 36;" xml:space="preserve">
<style type="text/css">
	.st0{fill:#222025;}
	.st1{fill:#C8C8C8;}
</style>
<rect id="XMLID_1_" x="-31" y="33" class="st0" width="36" height="36"/>
<g id="XMLID_3_">
	<polygon id="XMLID_106_" class="st1" points="-25.2,51.2 -25.2,62.9 -19.6,62.9 -19.6,50.3 -19.6,47 -25.2,47 	"/>
	<circle id="XMLID_105_" class="st1" cx="-22.4" cy="41.9" r="2.8"/>
	<path id="XMLID_104_" class="st1" d="M-1.6,51.9C-2,48.9-3.3,47-7.4,47c-2.4,0-4,0.9-4.7,2.1h-0.1V47h-4.4v3v12.8h4.6V55
		c0-2.1,0.4-4.1,2.9-4.1s2.7,2.4,2.7,4.2v7.7h4.7v-8.7l0,0C-1.5,53.4-1.5,52.6-1.6,51.9z"/>
</g>
</svg>
