<?xml version="1.0" encoding="utf-8"?>
<!-- Generator: Adobe Illustrator 19.2.1, SVG Export Plug-In . SVG Version: 6.00 Build 0)  -->
<svg version="1.1" id="Layer_1" xmlns="http://www.w3.org/2000/svg" xmlns:xlink="http://www.w3.org/1999/xlink" x="0px" y="0px"
	 viewBox="0 0 612 450" style="enable-background:new 0 0 612 450;" xml:space="preserve">
<style type="text/css">
	.st0{fill:#DFDEDE;}
</style>
<path class="st0" d="M306.5,384.7c0-2.8,0-5.5,0-8.5c0.7,0,1.3-0.1,1.8-0.1c4.8-0.1,9.6-0.1,14.3-0.3c4.6-0.2,9-1.2,13.3-3
	c8.1-3.4,12.7-9.7,14.1-18.2c1.1-6.8,1.2-13.7,1.2-20.5c0-20.4,0.1-40.9,0.1-61.3c0-57.4,0-114.7,0-172.1c0-10.9-0.1-21.8-0.1-32.8
	c0-0.5-0.1-1-0.1-1.5c33.9,0,67.8,0,101.7,0c1.3,0.1,2.5,0.2,3.8,0.3c1.1,0,2.2,0,3.4,0c1.3,0,2.7,0,4,0.1c1.4,0.1,2.8,0.2,4.5,0.4
	c-0.3-0.4-0.4-0.6-0.5-0.7c0.2,0,0.5,0,0.7,0c0,0.2-0.1,0.4-0.1,0.6c0.4,0.1,0.8,0.1,1.2,0.2c5.2,0.5,10.3,0.9,15.4,1.5
	c11,1.3,21.7,3.6,32.2,7.1c13.9,4.7,26.2,11.8,36.4,22.5c12.7,13.2,20,28.8,21.3,47.1c0,1,0,2,0,3c0,2.8,0,5.7,0,8.5
	c-0.1,1.8-0.2,3.6-0.3,5.4c-1.1,10.6-4.2,20.6-9.6,29.8c-8.2,14.1-19.7,24.7-34,32.4c-12.9,6.9-26.8,10.8-41.2,12.8
	c-10.9,1.5-21.8,2.2-32.8,2.6c-9.2,0.3-18.3,0.3-27.5,0.5c-0.6,0-1.2,0-1.9,0c0,0.7,0,1.1,0,1.6c0,30.7,0,61.5,0,92.2
	c0,7.3,0.3,14.5,1.3,21.7c0.7,4.9,2.9,8.8,6.6,12c6,5.2,13.1,7.5,20.9,8c4.7,0.3,9.4,0.2,14.2,0.3c0.6,0,1.2,0.1,1.9,0.1
	c0,2.9,0,5.7,0,8.4C417.3,384.7,361.9,384.7,306.5,384.7z M427.9,222.5c2.2,0.1,4.4,0.2,6.5,0.3c8.5,0.3,17-0.4,25.2-2.9
	c14.3-4.5,24.7-13.5,30.9-27.2c3.4-7.6,5.2-15.7,6.1-23.9c1-8.9,1.1-17.9,0.4-26.8c-0.6-8-2-15.8-4.8-23.4
	c-3.3-9.2-8.6-16.9-16.5-22.7c-6.2-4.5-13.3-7.3-20.7-9c-8.8-2-17.6-2-26.5-1.9c-0.2,0-0.3,0.1-0.6,0.2
	C427.9,130.8,427.9,176.5,427.9,222.5z"/>
<path class="st0" d="M167,66.5c0.1,0.5,0.2,1.1,0.5,1.6c29.6,69.2,59.2,138.3,88.9,207.5c2.9,6.9,5.9,13.8,8.9,20.6
	c0.5,1.2,0.5,2.3,0,3.5c-11.7,27.8-23.4,55.6-35,83.3c-0.2,0.6-0.4,1.2-0.7,1.7c-2,0-4.1,0-6.1,0c-0.1-0.4-0.1-0.7-0.2-1.1
	c-1.2-2.7-2.3-5.5-3.5-8.2c-29.4-68.3-58.7-136.6-88.1-204.9c-10.3-23.9-20.6-47.8-30.8-71.8c-0.2-0.4-0.4-0.8-0.6-1.3
	c-0.1,0-0.2,0-0.3,0.1c0,0.5,0,1,0,1.4c0,75.5,0,151.1,0.1,226.6c0,6.6,0.4,13.3,0.6,19.9c0.1,1.7,0.3,3.4,0.8,5
	c3.8,12.2,12,19.9,24.3,23.3c6.2,1.7,12.5,2.1,18.9,2.3c0.6,0,1.2,0.1,1.8,0.1c0,2.9,0,5.7,0,8.5c-36.4,0-72.7,0-109.1,0
	c0-2.8,0-5.6,0-8.4c3.1-0.1,6.3-0.1,9.4-0.3c6.7-0.5,13-2.4,18.9-5.6c5.3-3,9.3-7.2,11.9-12.7c1.4-3,2.6-6.1,3.3-9.4
	c0.4-2,0.8-4,0.9-6c0.2-7,0.3-14,0.3-20.9c0-66.6,0-133.2,0-199.8c0-8.6-0.1-17.1-1.2-25.6c-0.7-5.4-3.1-9.6-7.3-13
	c-5.4-4.4-11.6-6.5-18.4-7.3c-6-0.7-11.9-0.3-17.9-0.4c0-2.9,0-5.9,0-8.8C80.5,66.5,123.8,66.5,167,66.5z"/>
</svg>
