<?xml version="1.0" encoding="utf-8"?>
<!-- Generator: Adobe Illustrator 19.0.0, SVG Export Plug-In . SVG Version: 6.00 Build 0)  -->
<svg version="1.1" id="Layer_1" xmlns="http://www.w3.org/2000/svg" xmlns:xlink="http://www.w3.org/1999/xlink" x="0px" y="0px"
	 viewBox="0 0 36 36" style="enable-background:new 0 0 36 36;" xml:space="preserve">
<style type="text/css">
	.st0{fill:#2E2E2E;}
	.st1{fill:#7D7D7D;}
</style>
<rect id="XMLID_1_" class="st0" width="36" height="36"/>
<path id="XMLID_23_" class="st1" d="M18.6,5.4c-7.5,0-11.2,5.2-11.2,9.5c0,0.8,0.1,1.6,0.3,2.3c0.4,1.6,1.4,2.9,2.9,3.5
	c0.4,0.1,0.7,0,0.8-0.4c0.1-0.3,0.2-0.9,0.3-1.2c0.1-0.4,0.1-0.5-0.2-0.8c-0.4-0.4-0.7-0.9-0.9-1.6c-0.1-0.4-0.2-0.9-0.2-1.4
	c0-3.8,3-7.3,7.7-7.3c4.2,0,6.5,2.5,6.5,5.8c0,1-0.1,1.9-0.3,2.8c-0.7,3-2.4,5.3-4.7,5.3c-1.6,0-2.9-1.3-2.5-2.9
	c0.2-0.9,0.6-1.9,0.8-2.8c0.3-1,0.6-1.9,0.6-2.6c0-1.2-0.7-2.3-2.1-2.3c-1.7,0-3,1.7-3,3.9c0,0.4,0,0.8,0.1,1.1
	c0.1,0.8,0.4,1.3,0.4,1.3s-1.7,7-2,8.3c-0.6,2.5-0.1,5.5,0,5.8c0,0.2,0.3,0.2,0.4,0.1c0.2-0.2,2.2-2.6,2.8-5
	c0.2-0.7,1.1-4.2,1.1-4.2c0.5,1,2.1,1.9,3.8,1.9c4.1,0,7.1-3,8.1-7.3c0.2-1,0.3-2,0.3-3.1C28.6,9.6,24.6,5.4,18.6,5.4z"/>
</svg>
