<?xml version="1.0" encoding="utf-8"?>
<!-- Generator: Adobe Illustrator 19.0.0, SVG Export Plug-In . SVG Version: 6.00 Build 0)  -->
<svg version="1.1" id="Layer_1" xmlns="http://www.w3.org/2000/svg" xmlns:xlink="http://www.w3.org/1999/xlink" x="0px" y="0px"
	 viewBox="-31 33 36 36" style="enable-background:new -31 33 36 36;" xml:space="preserve">
<style type="text/css">
	.st0{fill:#222025;}
	.st1{fill:#C8C8C8;}
</style>
<rect id="XMLID_1_" x="-31" y="33" class="st0" width="36" height="36"/>
<path id="XMLID_47_" class="st1" d="M0.2,42.7c-1,0.4-2,0.7-3.1,0.8c1.1-0.6,1.9-1.7,2.3-2.9c-1,0.6-2.2,1-3.4,1.3
	c-1-1-2.4-1.7-3.9-1.7c-2.9,0-5.3,2.4-5.3,5.3c0,0.4,0,0.8,0.1,1.2c-4.4-0.2-8.4-2.3-11-5.5c-0.3,0.8-0.6,1.7-0.6,2.7
	c0,1.8,0.9,3.4,2.4,4.4c-0.9,0-1.7-0.3-2.4-0.7c0,0,0,0,0,0.1c0,0.7,0.1,1.3,0.4,1.9c0.7,1.6,2.1,2.9,3.9,3.2
	c-0.5,0.1-0.9,0.2-1.4,0.2c-0.3,0-0.7,0-1-0.1c0.7,2.1,2.6,3.6,5,3.6c-1.9,1.5-4.2,2.3-6.7,2.3c-0.4,0-0.9,0-1.3-0.1
	c2.4,1.5,5.2,2.4,8.2,2.4c8.3,0,13.5-5.8,14.8-11.8c0.2-1.1,0.4-2.1,0.4-3.2c0-0.2,0-0.5,0-0.7C-1.4,44.7-0.5,43.8,0.2,42.7z"/>
</svg>
