<?xml version="1.0" encoding="utf-8"?>
<!-- Generator: Adobe Illustrator 19.0.0, SVG Export Plug-In . SVG Version: 6.00 Build 0)  -->
<svg version="1.1" id="Layer_1" xmlns="http://www.w3.org/2000/svg" xmlns:xlink="http://www.w3.org/1999/xlink" x="0px" y="0px"
	 viewBox="-31 33 36 36" style="enable-background:new -31 33 36 36;" xml:space="preserve">
<style type="text/css">
	.st0{fill:#222025;}
	.st1{fill:#C8C8C8;}
</style>
<rect id="XMLID_1_" x="-31" y="33" class="st0" width="36" height="36"/>
<path id="XMLID_3_" class="st1" d="M-2.2,46.4c0,0-0.2-1.6-0.9-2.3c-0.8-0.9-1.8-0.9-2.2-1c-3.1-0.2-7.7-0.2-7.7-0.2l0,0
	c0,0-4.6,0-7.7,0.2c-0.4,0.1-1.4,0.1-2.2,1c-0.7,0.7-0.9,2.3-0.9,2.3s-0.2,1.9-0.2,3.7v0.2v1.5c0,1.9,0.2,3.7,0.2,3.7
	s0.2,1.6,0.9,2.3c0.8,0.9,1.9,0.9,2.4,1C-18.7,59-13,59-13,59s4.6,0,7.7-0.2c0.4-0.1,1.4-0.1,2.2-1c0.7-0.7,0.9-2.3,0.9-2.3
	S-2,53.6-2,51.8v-1.4v-0.3C-2,48.3-2.2,46.4-2.2,46.4z M-9.3,50.8l-6,3.2v-4.9v-1.5l2.7,1.5L-9.3,50.8z"/>
</svg>
