<?xml version="1.0" encoding="utf-8"?>
<!-- Generator: Adobe Illustrator 19.0.0, SVG Export Plug-In . SVG Version: 6.00 Build 0)  -->
<svg version="1.1" id="Layer_1" xmlns="http://www.w3.org/2000/svg" xmlns:xlink="http://www.w3.org/1999/xlink" x="0px" y="0px"
	 viewBox="0 0 36 36" style="enable-background:new 0 0 36 36;" xml:space="preserve">
<style type="text/css">
	.st0{fill:#2E2E2E;}
	.st1{fill:#7D7D7D;}
</style>
<rect id="XMLID_1_" class="st0" width="36" height="36"/>
<path id="XMLID_3_" class="st1" d="M28.8,13.4c0,0-0.2-1.6-0.9-2.3c-0.8-0.9-1.8-0.9-2.2-1C22.6,9.9,18,9.9,18,9.9h0
	c0,0-4.6,0-7.7,0.2c-0.4,0.1-1.4,0.1-2.2,1c-0.7,0.7-0.9,2.3-0.9,2.3S7,15.3,7,17.1v0.2v1.5c0,1.9,0.2,3.7,0.2,3.7s0.2,1.6,0.9,2.3
	c0.8,0.9,1.9,0.9,2.4,1c1.8,0.2,7.5,0.2,7.5,0.2s4.6,0,7.7-0.2c0.4-0.1,1.4-0.1,2.2-1c0.7-0.7,0.9-2.3,0.9-2.3s0.2-1.9,0.2-3.7v-1.4
	v-0.3C29,15.3,28.8,13.4,28.8,13.4z M21.7,17.8L15.7,21l0-4.9l0-1.5l2.7,1.5L21.7,17.8z"/>
</svg>
